<svg width="42" height="42" viewBox="0 0 42 42" fill="none" xmlns="http://www.w3.org/2000/svg">
<path d="M6.68154 39.375C6.18174 39.375 5.77539 38.9592 5.77539 38.4458V3.55425C5.77539 3.0408 6.18279 2.625 6.68154 2.625H17.3674C17.339 2.8014 17.3254 2.9757 17.3254 3.15C17.3254 5.1765 18.9739 6.825 21.0004 6.825C23.0269 6.825 24.6754 5.1765 24.6754 3.15C24.6754 2.9757 24.6617 2.8014 24.6334 2.625H35.3192C35.819 2.625 36.2254 3.0408 36.2254 3.55425V38.4458C36.2254 38.9581 35.818 39.375 35.3192 39.375H6.68154Z" fill="#B6DCFE"/>
<path d="M35.3178 3.14998C35.5289 3.14998 35.7 3.33163 35.7 3.55423V38.4468C35.7 38.6683 35.5289 38.85 35.3178 38.85H6.6822C6.47115 38.85 6.3 38.6683 6.3 38.4457V3.55423C6.3 3.33163 6.47115 3.14998 6.6822 3.14998H16.8C16.8 5.46628 18.6837 7.34998 21 7.34998C23.3163 7.34998 25.2 5.46628 25.2 3.14998H35.3178ZM35.3178 2.09998H23.9568C24.0744 2.42968 24.15 2.77933 24.15 3.14998C24.15 4.88983 22.7398 6.29998 21 6.29998C19.2601 6.29998 17.85 4.88983 17.85 3.14998C17.85 2.77933 17.9256 2.42968 18.0432 2.09998H6.6822C5.89155 2.09998 5.25 2.75098 5.25 3.55423V38.4468C5.25 39.249 5.89155 39.9 6.6822 39.9H35.3188C36.1084 39.9 36.75 39.249 36.75 38.4457V3.55423C36.75 2.75098 36.1084 2.09998 35.3178 2.09998Z" fill="#4788C7"/>
<path d="M8.40039 5.25H33.6004V36.75H8.40039V5.25Z" fill="white"/>
<path d="M13.6504 21.9985L18.5843 26.9325L28.3504 17.1675" stroke="#4788C7" stroke-width="3" stroke-miterlimit="10"/>
<path d="M20.9996 1.05C22.1578 1.05 23.0996 1.99185 23.0996 3.15C23.0996 4.30815 22.1578 5.25 20.9996 5.25C19.8415 5.25 18.8996 4.30815 18.8996 3.15C18.8996 1.99185 19.8415 1.05 20.9996 1.05ZM20.9996 0C19.2598 0 17.8496 1.41015 17.8496 3.15C17.8496 4.88985 19.2598 6.3 20.9996 6.3C22.7395 6.3 24.1496 4.88985 24.1496 3.15C24.1496 1.41015 22.7395 0 20.9996 0Z" fill="#4788C7"/>
<path d="M15.7508 7.87502C14.8824 7.87502 14.1758 7.16838 14.1758 6.30002V2.62502H18.4136L18.4535 2.51372C18.402 2.71742 18.3758 2.93057 18.3758 3.15002C18.3758 4.59797 19.5528 5.77502 21.0008 5.77502C22.4487 5.77502 23.6258 4.59797 23.6258 3.15002C23.6258 2.93057 23.5995 2.71742 23.5481 2.51372L23.588 2.62502H27.8258V6.30002C27.8258 7.16838 27.1191 7.87502 26.2508 7.87502H15.7508ZM20.9966 0.525024C20.9987 0.525024 21.0029 0.525024 21.005 0.525024C21.0029 0.525024 20.9987 0.525024 20.9966 0.525024Z" fill="#98CCFD"/>
<path d="M27.3004 3.15V6.3C27.3004 6.87855 26.8289 7.35 26.2504 7.35H15.7504C15.1718 7.35 14.7004 6.87855 14.7004 6.3V3.15H17.8504C17.8504 4.8867 19.2637 6.3 21.0004 6.3C22.7371 6.3 24.1504 4.8867 24.1504 3.15H27.3004ZM21.0004 0C19.6312 0 18.4772 0.87885 18.0436 2.1H13.6504V6.3C13.6504 7.46025 14.5901 8.4 15.7504 8.4H26.2504C27.4106 8.4 28.3504 7.46025 28.3504 6.3V2.1H23.9572C23.5235 0.87885 22.3696 0 21.0004 0ZM21.0004 5.25C19.8422 5.25 18.9004 4.30815 18.9004 3.15C18.9004 1.99185 19.8422 1.05 21.0004 1.05C22.1585 1.05 23.1004 1.99185 23.1004 3.15C23.1004 4.30815 22.1585 5.25 21.0004 5.25Z" fill="#4788C7"/>
</svg>
