<svg width="40" height="32" viewBox="0 0 40 32" fill="none" xmlns="http://www.w3.org/2000/svg">
<path d="M29.1852 1.87855C34.3785 3.6373 38.3748 9.21175 38.8421 15.9968L38.8767 16.4652C38.8925 16.7644 38.8998 17.0605 38.8998 17.3503C38.8998 24.7108 34.661 30.7 29.4498 30.7H28.3998C24.7721 30.7 22.1187 27.6907 20.8598 25.8973L19.9998 24.6719L19.1399 25.8962C17.8809 27.6907 15.2276 30.7 11.5998 30.7H10.5498C5.33866 30.7 1.0998 24.7108 1.0998 17.3503C1.0998 17.1014 1.10505 16.8494 1.1166 16.5933L1.15755 15.9968C1.6248 9.21175 5.6211 3.6373 10.8144 1.87855C7.00395 4.50355 4.2498 9.98665 4.2498 16C4.2498 23.3993 7.61611 29.65 11.5998 29.65C14.8895 29.65 17.7791 27.3851 19.5284 23.4361L19.7237 22.9951L19.5158 22.5593C18.722 20.8919 17.8998 17.9824 17.8998 16C17.8998 12.7954 19.1441 10.75 19.9998 10.75C20.8556 10.75 22.0998 12.7954 22.0998 16C22.0998 17.9824 21.2777 20.8919 20.4839 22.5593L20.276 22.9951L20.4713 23.4361C22.2206 27.3851 25.1102 29.65 28.3998 29.65C32.3835 29.65 35.7498 23.3993 35.7498 16C35.7498 9.98665 32.9957 4.50355 29.1852 1.87855ZM25.7003 0.25H24.2754H23.1498V1.3H24.2744C29.7837 1.3 34.6998 8.13025 34.6998 16C34.6998 23.0833 31.5477 28.6 28.3998 28.6C25.4262 28.6 22.9629 26.4674 21.432 23.0108C22.2794 21.2332 23.1498 18.1504 23.1498 16C23.1498 12.5203 21.7397 9.7 19.9998 9.7C18.26 9.7 16.8498 12.5203 16.8498 16C16.8498 18.1504 17.7203 21.2332 18.5676 23.0108C17.0367 26.4674 14.5734 28.6 11.5998 28.6C8.45191 28.6 5.29981 23.0833 5.29981 16C5.29981 8.13025 10.2159 1.3 15.7253 1.3H16.8498V0.25H15.7253H14.3004C6.8307 0.25 0.714455 7.14955 0.109655 15.9255H0.103355C0.0687047 16.3937 0.0498047 16.8694 0.0498047 17.3503C0.0498047 25.22 4.6467 31.75 10.5498 31.75C10.7903 31.75 11.5998 31.75 11.5998 31.75C15.0155 31.75 17.9114 29.4757 19.9998 26.5C22.0883 29.4757 24.9842 31.75 28.3998 31.75C28.3998 31.75 29.2094 31.75 29.4498 31.75C35.3529 31.75 39.9498 25.22 39.9498 17.3503C39.9498 16.8694 39.9309 16.3937 39.8963 15.9255H39.89C39.2852 7.14955 33.1689 0.25 25.7003 0.25Z" fill="#4788C7"/>
</svg>
