<svg width="40" height="40" viewBox="0 0 40 40" fill="none" xmlns="http://www.w3.org/2000/svg">
<path d="M13.5 5.5C11.9087 5.5 10.3826 6.13214 9.25736 7.25736C8.13214 8.38258 7.5 9.9087 7.5 11.5C7.5 13.0913 8.13214 14.6174 9.25736 15.7426C10.3826 16.8679 11.9087 17.5 13.5 17.5C15.0913 17.5 16.6174 16.8679 17.7426 15.7426C18.8679 14.6174 19.5 13.0913 19.5 11.5C19.5 9.9087 18.8679 8.38258 17.7426 7.25736C16.6174 6.13214 15.0913 5.5 13.5 5.5Z" fill="#98CCFD"/>
<path d="M13.5 6C16.533 6 19 8.467 19 11.5C19 14.533 16.533 17 13.5 17C10.467 17 8 14.533 8 11.5C8 8.467 10.467 6 13.5 6ZM13.5 5C9.91 5 7 7.91 7 11.5C7 15.09 9.91 18 13.5 18C17.09 18 20 15.09 20 11.5C20 7.91 17.09 5 13.5 5Z" fill="#4788C7"/>
<path d="M28.5 11.5C27.8434 11.5 27.1932 11.6293 26.5866 11.8806C25.98 12.1319 25.4288 12.5002 24.9645 12.9645C24.5002 13.4288 24.1319 13.98 23.8806 14.5866C23.6293 15.1932 23.5 15.8434 23.5 16.5C23.5 17.1566 23.6293 17.8068 23.8806 18.4134C24.1319 19.02 24.5002 19.5712 24.9645 20.0355C25.4288 20.4998 25.98 20.8681 26.5866 21.1194C27.1932 21.3707 27.8434 21.5 28.5 21.5C29.1566 21.5 29.8068 21.3707 30.4134 21.1194C31.02 20.8681 31.5712 20.4998 32.0355 20.0355C32.4998 19.5712 32.8681 19.02 33.1194 18.4134C33.3707 17.8068 33.5 17.1566 33.5 16.5C33.5 15.8434 33.3707 15.1932 33.1194 14.5866C32.8681 13.98 32.4998 13.4288 32.0355 12.9645C31.5712 12.5002 31.02 12.1319 30.4134 11.8806C29.8068 11.6293 29.1566 11.5 28.5 11.5Z" fill="#98CCFD"/>
<path d="M28.5 12C30.981 12 33 14.019 33 16.5C33 18.981 30.981 21 28.5 21C26.019 21 24 18.981 24 16.5C24 14.019 26.019 12 28.5 12ZM28.5 11C25.462 11 23 13.462 23 16.5C23 19.538 25.462 22 28.5 22C31.538 22 34 19.538 34 16.5C34 13.462 31.538 11 28.5 11Z" fill="#4788C7"/>
<path d="M2.5 34.5V28.741C2.5 23.645 7.435 19.5 13.5 19.5C19.565 19.5 24.5 23.646 24.5 28.741V34.5H2.5Z" fill="#8BB7F0"/>
<path d="M13.5 20C19.29 20 24 23.921 24 28.741V34H3V28.741C3 23.921 7.71 20 13.5 20ZM13.5 19C7.149 19 2 23.361 2 28.741V35H25V28.741C25 23.361 19.851 19 13.5 19Z" fill="#4E7AB5"/>
<path d="M19.5 34.5V31.725C19.5 27.19 23.538 23.5 28.5 23.5C33.462 23.5 37.5 27.189 37.5 31.725V34.5H19.5Z" fill="#8BB7EF"/>
<path d="M36.0004 27.1796C34.3789 24.9542 31.6058 23.5 28.5 23.5C31.6497 23.5 34.3951 24.9698 36.0004 27.1796Z" fill="#7496C4" stroke="#4888C7"/>
</svg>
