<svg width="45" height="45" viewBox="0 0 45 45" fill="none" xmlns="http://www.w3.org/2000/svg">
<g clip-path="url(#clip0_46_154)">
<path d="M12.682 20.1834C12.682 20.7431 12.742 21.1959 12.847 21.5288C12.967 21.8616 13.116 22.2244 13.326 22.6172C13.401 22.7381 13.431 22.8591 13.431 22.965C13.431 23.1159 13.341 23.2669 13.147 23.4188L12.2038 24.0534C12.0688 24.1444 11.9348 24.1894 11.8148 24.1894C11.6648 24.1894 11.5157 24.1134 11.3657 23.9775C11.1557 23.7506 10.9766 23.5088 10.8266 23.2669C10.6766 23.01 10.5276 22.7231 10.3626 22.3753C9.19539 23.7656 7.7282 24.4613 5.96195 24.4613C4.70477 24.4613 3.70164 24.0984 2.96852 23.3728C2.23539 22.6472 1.86133 21.6797 1.86133 20.4703C1.86133 19.1859 2.31039 18.1425 3.22352 17.3569C4.13664 16.5713 5.34883 16.1775 6.89008 16.1775C7.39914 16.1775 7.9232 16.2225 8.47633 16.2984C9.02945 16.3744 9.59852 16.4953 10.1976 16.6313V15.5278C10.1976 14.3794 9.95852 13.5778 9.49445 13.1091C9.01539 12.6403 8.20727 12.4134 7.05508 12.4134C6.53102 12.4134 5.99289 12.4734 5.43883 12.6103C4.88477 12.7463 4.34664 12.9122 3.82258 13.1241C3.58352 13.23 3.40352 13.29 3.29852 13.3209C3.19352 13.3509 3.11852 13.3659 3.05945 13.3659C2.84945 13.3659 2.74539 13.215 2.74539 12.8972V12.1566C2.74539 11.9147 2.77539 11.7337 2.85039 11.6278C2.92539 11.5219 3.06039 11.4159 3.26945 11.31C3.79352 11.0381 4.42164 10.8113 5.1557 10.6294C5.88883 10.4325 6.66695 10.3425 7.49008 10.3425C9.27133 10.3425 10.5735 10.7503 11.4116 11.5669C12.2348 12.3834 12.6538 13.6228 12.6538 15.285V20.1825H12.682V20.1834ZM6.60508 22.4803C7.09914 22.4803 7.6082 22.3894 8.14633 22.2084C8.68539 22.0275 9.16445 21.6947 9.56852 21.2409C9.80758 20.9541 9.98758 20.6363 10.0776 20.2734C10.1676 19.9106 10.2276 19.4719 10.2276 18.9581V18.3234C9.79352 18.2175 9.32945 18.1266 8.85039 18.0666C8.37133 18.0066 7.90727 17.9756 7.4432 17.9756C6.44008 17.9756 5.70695 18.1725 5.21289 18.5803C4.71883 18.9881 4.47977 19.5628 4.47977 20.3184C4.47977 21.0291 4.65977 21.5578 5.03383 21.9206C5.39289 22.2994 5.91695 22.4803 6.60508 22.4803ZM18.6238 24.1134C18.3548 24.1134 18.1748 24.0684 18.0548 23.9625C17.9348 23.8716 17.8307 23.6606 17.7407 23.3728L14.2232 11.6888C14.1332 11.3869 14.0882 11.19 14.0882 11.0841C14.0882 10.8422 14.2082 10.7063 14.4473 10.7063H15.9145C16.1985 10.7063 16.3935 10.7513 16.4985 10.8572C16.6185 10.9481 16.7076 11.1591 16.7976 11.4469L19.312 21.4538L21.6463 11.4469C21.7213 11.145 21.8113 10.9481 21.9304 10.8572C22.0504 10.7663 22.2595 10.7063 22.5295 10.7063H23.7266C24.0107 10.7063 24.2057 10.7513 24.3257 10.8572C24.4457 10.9481 24.5498 11.1591 24.6098 11.4469L26.9741 21.5747L29.5635 11.4469C29.6535 11.145 29.7585 10.9481 29.8626 10.8572C29.9826 10.7663 30.1766 10.7063 30.4466 10.7063H31.8388C32.0779 10.7063 32.2129 10.8272 32.2129 11.0841C32.2129 11.16 32.1979 11.235 32.1829 11.3259C32.1679 11.4169 32.1379 11.5378 32.0779 11.7038L28.4713 23.3878C28.3813 23.6897 28.2763 23.8866 28.1573 23.9775C28.0382 24.0684 27.8432 24.1284 27.5882 24.1284H26.301C26.017 24.1284 25.822 24.0834 25.702 23.9775C25.582 23.8716 25.4779 23.6756 25.4179 23.3728L23.0985 13.6228L20.7941 23.3578C20.7191 23.6597 20.6291 23.8566 20.5101 23.9625C20.3901 24.0684 20.181 24.1134 19.911 24.1134H18.6238ZM37.8557 24.5213C37.0776 24.5213 36.2995 24.4303 35.5513 24.2494C34.8032 24.0684 34.2191 23.8716 33.8301 23.6447C33.591 23.5088 33.426 23.3578 33.366 23.2219C33.306 23.0859 33.276 22.935 33.276 22.7991V22.0284C33.276 21.7106 33.396 21.5597 33.6201 21.5597C33.7101 21.5597 33.8001 21.5747 33.8891 21.6047C33.9791 21.6347 34.1132 21.6956 34.2632 21.7556C34.7723 21.9825 35.3254 22.1634 35.9095 22.2844C36.5085 22.4053 37.0916 22.4653 37.6907 22.4653C38.6338 22.4653 39.367 22.2994 39.876 21.9666C40.3851 21.6338 40.6541 21.15 40.6541 20.5303C40.6541 20.1075 40.5191 19.7597 40.2501 19.4719C39.981 19.185 39.472 18.9281 38.7388 18.6862L36.5685 18.0056C35.4763 17.6578 34.6682 17.1441 34.1741 16.4634C33.6801 15.7988 33.426 15.0581 33.426 14.2716C33.426 13.6369 33.561 13.0772 33.8301 12.5934C34.0991 12.1097 34.4591 11.6869 34.9073 11.3541C35.3563 11.0063 35.8654 10.7494 36.4635 10.5684C37.0626 10.3884 37.6907 10.3125 38.3498 10.3125C38.6788 10.3125 39.0229 10.3275 39.3529 10.3725C39.697 10.4175 40.011 10.4784 40.326 10.5384C40.6251 10.6144 40.9101 10.6894 41.1791 10.7803C41.4482 10.8712 41.6582 10.9612 41.8082 11.0522C42.0182 11.1731 42.1673 11.2941 42.2573 11.43C42.3473 11.5509 42.3923 11.7169 42.3923 11.9288V12.6394C42.3923 12.9572 42.2723 13.1231 42.0482 13.1231C41.9282 13.1231 41.7341 13.0631 41.4791 12.9422C40.626 12.5494 39.6679 12.3525 38.6057 12.3525C37.7526 12.3525 37.0795 12.4884 36.6154 12.7753C36.1513 13.0622 35.9123 13.5009 35.9123 14.1206C35.9123 14.5434 36.0623 14.9063 36.3613 15.1941C36.6604 15.4809 37.2145 15.7688 38.0076 16.0256L40.1329 16.7063C41.2101 17.0541 41.9891 17.5378 42.4523 18.1575C42.9154 18.7772 43.1404 19.4878 43.1404 20.2734C43.1404 20.9231 43.0054 21.5128 42.7513 22.0266C42.4823 22.5403 42.1223 22.9941 41.6591 23.3569C41.1951 23.7347 40.641 24.0066 39.9979 24.2034C39.322 24.4153 38.6188 24.5213 37.8557 24.5213Z" fill="#67A1D6"/>
<path d="M40.6834 31.8675C35.7597 35.5407 28.6056 37.4907 22.4538 37.4907C13.8334 37.4907 6.06531 34.2713 0.198438 28.92C-0.265625 28.4972 0.153438 27.9225 0.7075 28.2553C7.05344 31.9735 14.8806 34.2263 22.9778 34.2263C28.4406 34.2263 34.4425 33.0778 39.9644 30.7191C40.7884 30.3413 41.4916 31.2628 40.6834 31.8675ZM42.7337 29.5097C42.1047 28.6932 38.5731 29.1169 36.9719 29.3128C36.4928 29.3728 36.4178 28.95 36.8519 28.6322C39.6653 26.6372 44.29 27.211 44.8291 27.8766C45.3681 28.5572 44.6791 33.2278 42.0456 35.4647C41.6416 35.8125 41.2525 35.6307 41.4316 35.1778C42.0306 33.6816 43.3628 30.3103 42.7337 29.5097Z" fill="#4788C7"/>
</g>
<defs>
<clipPath id="clip0_46_154">
<rect width="45" height="45" fill="white"/>
</clipPath>
</defs>
</svg>
