<svg width="42" height="42" viewBox="0 0 42 42" fill="none" xmlns="http://www.w3.org/2000/svg">
<path d="M16.7998 8.3999L33.5998 25.1999" stroke="#4788C7" stroke-miterlimit="10"/>
<path d="M10.1924 10.5L18.8998 1.79225L24.4573 7.34948L15.7498 16.0572L10.1924 10.5Z" fill="#B6DCFE"/>
<path d="M18.9002 2.53475L23.7155 7.35005L15.7502 15.3153L10.9349 10.5L18.9002 2.53475ZM18.9002 1.05005L9.4502 10.5L15.7502 16.8L25.2002 7.35005L18.9002 1.05005Z" fill="#4788C7"/>
<path d="M25.9424 26.25L34.6498 17.5423L40.2073 23.0995L31.4998 31.8072L25.9424 26.25Z" fill="#B6DCFE"/>
<path d="M34.6502 18.2847L39.4655 23.1L31.5002 31.0653L26.6849 26.25L34.6502 18.2847ZM34.6502 16.8L25.2002 26.25L31.5002 32.55L40.9502 23.1L34.6502 16.8Z" fill="#4788C7"/>
<path d="M17.3252 24.675L25.2002 16.8" stroke="#4788C7" stroke-miterlimit="10" stroke-linecap="round"/>
<path d="M25.4355 22.575C25.195 22.575 24.9693 22.4816 24.7992 22.3115L19.6888 17.2022C19.3381 16.8515 19.3381 16.2792 19.6888 15.9285L26.4288 9.1886C26.5999 9.0185 26.8246 8.92505 27.0651 8.92505C27.3055 8.92505 27.5313 9.0185 27.7014 9.1886L32.8117 14.2979C33.1624 14.6486 33.1624 15.2208 32.8117 15.5715L26.0718 22.3115C25.9006 22.4816 25.6759 22.575 25.4355 22.575Z" fill="#98CCFD"/>
<path d="M27.0647 9.4499C27.1225 9.4499 27.2348 9.4646 27.3304 9.56015L32.4397 14.6695C32.5352 14.765 32.5499 14.8763 32.5499 14.9351C32.5499 14.9929 32.5352 15.1052 32.4397 15.2008L25.6997 21.9407C25.6042 22.0352 25.4929 22.0499 25.4351 22.0499C25.3774 22.0499 25.265 22.0352 25.1695 21.9397L20.0602 16.8304C19.9646 16.7348 19.9499 16.6235 19.9499 16.5647C19.9499 16.507 19.9646 16.3946 20.0602 16.2991L26.8001 9.5591C26.8957 9.4646 27.007 9.4499 27.0647 9.4499ZM27.0647 8.3999C26.7004 8.3999 26.335 8.5385 26.0567 8.81675L19.3168 15.5567C18.7603 16.1132 18.7603 17.0152 19.3168 17.5717L24.4261 22.681C24.7054 22.9613 25.0697 23.0999 25.4351 23.0999C25.7995 23.0999 26.1649 22.9613 26.4431 22.6831L33.1831 15.9431C33.7396 15.3866 33.7396 14.4847 33.1831 13.9282L28.0738 8.81885C27.7945 8.5385 27.4301 8.3999 27.0647 8.3999Z" fill="#4788C7"/>
<path d="M14.5166 19.0228C15.26 18.6564 16.6345 18.103 18.1643 18.103C19.7204 18.103 21.0791 18.6732 22.2037 19.7967C24.9652 22.5582 23.6548 26.1072 22.9775 27.4827L14.5166 19.0228Z" fill="#DFF0FE"/>
<path d="M18.1633 18.6291C19.5755 18.6291 20.8093 19.1468 21.8309 20.1695C24.0097 22.3482 23.4259 25.0498 22.8137 26.5797L15.428 19.194C16.1483 18.9095 17.1217 18.6291 18.1633 18.6291ZM18.1633 17.5791C15.6937 17.5791 13.6504 18.9 13.6504 18.9L23.1004 28.35C23.1004 28.35 26.3984 23.2502 22.5743 19.4261C21.1715 18.0233 19.5955 17.5791 18.1633 17.5791Z" fill="#4788C7"/>
<path d="M14.7002 11.55L16.8002 9.45005M17.8502 8.40005L19.9502 6.30005M30.4502 27.3L32.5502 25.2M33.6002 24.15L35.7002 22.05" stroke="#4788C7" stroke-width="2" stroke-miterlimit="10"/>
<path d="M17.8498 38.8499C9.7438 38.8499 3.1498 32.2559 3.1498 24.1499H1.0498C1.0498 33.4288 8.57095 40.9499 17.8498 40.9499V38.8499Z" fill="#4788C7"/>
<path d="M17.8498 33.5999C12.6387 33.5999 8.3998 29.3611 8.3998 24.1499H6.2998C6.2998 30.5287 11.4711 35.6999 17.8498 35.6999V33.5999Z" fill="#4788C7"/>
<path d="M17.8498 28.3501C15.5335 28.3501 13.6498 26.4664 13.6498 24.1501H11.5498C11.5498 27.6298 14.3701 30.4501 17.8498 30.4501V28.3501ZM2.0998 23.1001C1.82133 23.1001 1.55426 23.2107 1.35734 23.4076C1.16043 23.6045 1.0498 23.8716 1.0498 24.1501C1.0498 24.4286 1.16043 24.6956 1.35734 24.8926C1.55426 25.0895 1.82133 25.2001 2.0998 25.2001C2.37828 25.2001 2.64535 25.0895 2.84227 24.8926C3.03918 24.6956 3.1498 24.4286 3.1498 24.1501C3.1498 23.8716 3.03918 23.6045 2.84227 23.4076C2.64535 23.2107 2.37828 23.1001 2.0998 23.1001ZM7.3498 23.1001C7.07133 23.1001 6.80426 23.2107 6.60734 23.4076C6.41043 23.6045 6.2998 23.8716 6.2998 24.1501C6.2998 24.4286 6.41043 24.6956 6.60734 24.8926C6.80426 25.0895 7.07133 25.2001 7.3498 25.2001C7.62828 25.2001 7.89535 25.0895 8.09227 24.8926C8.28918 24.6956 8.3998 24.4286 8.3998 24.1501C8.3998 23.8716 8.28918 23.6045 8.09227 23.4076C7.89535 23.2107 7.62828 23.1001 7.3498 23.1001Z" fill="#4788C7"/>
<path d="M12.5998 23.1001C12.3213 23.1001 12.0543 23.2107 11.8573 23.4076C11.6604 23.6045 11.5498 23.8716 11.5498 24.1501C11.5498 24.4286 11.6604 24.6956 11.8573 24.8926C12.0543 25.0895 12.3213 25.2001 12.5998 25.2001C12.8783 25.2001 13.1454 25.0895 13.3423 24.8926C13.5392 24.6956 13.6498 24.4286 13.6498 24.1501C13.6498 23.8716 13.5392 23.6045 13.3423 23.4076C13.1454 23.2107 12.8783 23.1001 12.5998 23.1001ZM17.8498 28.3501C17.5713 28.3501 17.3043 28.4607 17.1073 28.6576C16.9104 28.8545 16.7998 29.1216 16.7998 29.4001C16.7998 29.6786 16.9104 29.9456 17.1073 30.1426C17.3043 30.3395 17.5713 30.4501 17.8498 30.4501C18.1283 30.4501 18.3954 30.3395 18.5923 30.1426C18.7892 29.9456 18.8998 29.6786 18.8998 29.4001C18.8998 29.1216 18.7892 28.8545 18.5923 28.6576C18.3954 28.4607 18.1283 28.3501 17.8498 28.3501ZM17.8498 33.6001C17.5713 33.6001 17.3043 33.7107 17.1073 33.9076C16.9104 34.1045 16.7998 34.3716 16.7998 34.6501C16.7998 34.9286 16.9104 35.1956 17.1073 35.3926C17.3043 35.5895 17.5713 35.7001 17.8498 35.7001C18.1283 35.7001 18.3954 35.5895 18.5923 35.3926C18.7892 35.1956 18.8998 34.9286 18.8998 34.6501C18.8998 34.3716 18.7892 34.1045 18.5923 33.9076C18.3954 33.7107 18.1283 33.6001 17.8498 33.6001ZM17.8498 38.8501C17.5713 38.8501 17.3043 38.9607 17.1073 39.1576C16.9104 39.3545 16.7998 39.6216 16.7998 39.9001C16.7998 40.1786 16.9104 40.4456 17.1073 40.6426C17.3043 40.8395 17.5713 40.9501 17.8498 40.9501C18.1283 40.9501 18.3954 40.8395 18.5923 40.6426C18.7892 40.4456 18.8998 40.1786 18.8998 39.9001C18.8998 39.6216 18.7892 39.3545 18.5923 39.1576C18.3954 38.9607 18.1283 38.8501 17.8498 38.8501Z" fill="#4788C7"/>
</svg>
