<svg width="42" height="42" viewBox="0 0 42 42" fill="none" xmlns="http://www.w3.org/2000/svg">
<path d="M2.625 14.175H6.825V40.425H2.625V14.175Z" fill="#DFF0FE"/>
<path d="M6.29961 14.6999V39.8999H3.14961V14.6999H6.29961ZM7.34961 13.6499H2.09961V40.9499H7.34961V13.6499Z" fill="#4788C7"/>
<path d="M15.2246 19.425H19.4246V40.425H15.2246V19.425Z" fill="#DFF0FE"/>
<path d="M18.9002 19.9499V39.8999H15.7502V19.9499H18.9002ZM19.9502 18.8999H14.7002V40.9499H19.9502V18.8999Z" fill="#4788C7"/>
<path d="M21.5254 26.7749H25.7254V40.4249H21.5254V26.7749Z" fill="#DFF0FE"/>
<path d="M25.2 27.3V39.9H22.05V27.3H25.2ZM26.25 26.25H21V40.95H26.25V26.25Z" fill="#4788C7"/>
<path d="M27.8252 23.625H32.0252V40.425H27.8252V23.625Z" fill="#DFF0FE"/>
<path d="M31.4998 24.1501V39.9001H28.3498V24.1501H31.4998ZM32.5498 23.1001H27.2998V40.9501H32.5498V23.1001Z" fill="#4788C7"/>
<path d="M34.125 28.875H38.325V40.425H34.125V28.875Z" fill="#DFF0FE"/>
<path d="M37.7996 29.4001V39.9001H34.6496V29.4001H37.7996ZM38.8496 28.3501H33.5996V40.9501H38.8496V28.3501Z" fill="#4788C7"/>
<path d="M8.92578 22.575H13.1258V40.4249H8.92578V22.575Z" fill="#DFF0FE"/>
<path d="M12.6004 23.1V39.9H9.45039V23.1H12.6004ZM13.6504 22.05H8.40039V40.9501H13.6504V22.05Z" fill="#4788C7"/>
<path d="M3.6748 2.625L10.4998 7.35L14.6998 5.25L23.0998 11.55L27.2998 9.45L36.7498 16.8" stroke="#4788C7" stroke-miterlimit="10" stroke-linecap="round"/>
<path d="M38.8498 12.6001V18.9001H32.5498L38.8498 12.6001Z" fill="#4788C7"/>
</svg>
