<svg width="42" height="42" viewBox="0 0 42 42" fill="none" xmlns="http://www.w3.org/2000/svg">
<path d="M9.44961 23.1001V26.2501H30.4496H32.5496H39.8996V32.5501H38.8496H30.4496H9.44961V35.7001L2.09961 29.4001L9.44961 23.1001Z" fill="#DFF0FE"/>
<path d="M10.4998 21V26.25H12.0748V27.3H9.4498V23.3415L2.6353 29.4L9.4498 35.4585V31.5H12.0748V32.55H10.4998V37.8L1.0498 29.4L10.4998 21Z" fill="#4788C7"/>
<path d="M12.0748 31.5C11.9356 31.5 11.802 31.5553 11.7036 31.6538C11.6051 31.7522 11.5498 31.8858 11.5498 32.025C11.5498 32.1642 11.6051 32.2978 11.7036 32.3962C11.802 32.4947 11.9356 32.55 12.0748 32.55C12.214 32.55 12.3476 32.4947 12.446 32.3962C12.5445 32.2978 12.5998 32.1642 12.5998 32.025C12.5998 31.8858 12.5445 31.7522 12.446 31.6538C12.3476 31.5553 12.214 31.5 12.0748 31.5ZM12.0748 26.25C11.9356 26.25 11.802 26.3053 11.7036 26.4038C11.6051 26.5022 11.5498 26.6358 11.5498 26.775C11.5498 26.9142 11.6051 27.0478 11.7036 27.1462C11.802 27.2447 11.9356 27.3 12.0748 27.3C12.214 27.3 12.3476 27.2447 12.446 27.1462C12.5445 27.0478 12.5998 26.9142 12.5998 26.775C12.5998 26.6358 12.5445 26.5022 12.446 26.4038C12.3476 26.3053 12.214 26.25 12.0748 26.25Z" fill="#4788C7"/>
<path d="M32.5496 18.9V15.75H11.5496H9.44961H2.09961V9.45005H3.14961H11.5496H32.5496V6.30005L39.8996 12.6L32.5496 18.9Z" fill="#DFF0FE"/>
<path d="M40.95 12.6L31.5 4.19995V9.44995H28.875V10.5H32.55V6.54145L39.3645 12.6L32.55 18.6585V14.7H28.875V15.75H31.5V21L40.95 12.6Z" fill="#4788C7"/>
<path d="M19.4248 36.2249V31.9997C18.3244 31.9357 15.8149 31.7393 14.5087 31.228L14.1748 31.0957V25.81L14.9077 26.126C16.0197 26.6048 17.202 26.7749 19.4248 26.7749C20.9158 26.7749 22.5748 25.8446 22.5748 25.2146C22.5748 24.3305 21.2844 23.7761 19.7902 23.1356C17.4204 22.1161 14.1748 20.7217 14.1748 16.7999C14.1748 12.3406 17.2849 10.5157 19.4248 10.0589V5.7749H21.5248V10.0138C23.1807 10.1597 25.5505 10.5482 26.506 11.0806L26.7748 11.2307V16.6823L25.9779 16.1993C24.9121 15.5536 23.503 15.2249 21.7873 15.2249C20.2858 15.2249 19.4248 15.7993 19.4248 16.7999C19.4248 17.831 20.5137 18.3056 22.2892 18.9913C24.6255 19.8953 27.8248 21.1333 27.8248 25.3007C27.8248 28.8844 24.2149 31.2836 21.5248 31.9273V36.2249H19.4248Z" fill="#98CCFD"/>
<path d="M21.0004 6.3V10.5C22.7633 10.6123 25.3484 11.0366 26.2504 11.5385V15.75C24.9557 14.9646 23.3629 14.7 21.7879 14.7C19.7446 14.7 18.9004 15.6912 18.9004 16.8C18.9004 20.2387 27.3004 18.7383 27.3004 25.3008C27.3004 28.6734 23.6894 31.0317 21.0004 31.5V35.7H19.9504V31.5C18.6347 31.4475 15.9646 31.2333 14.7004 30.7377V26.607C15.8701 27.112 17.1059 27.3 19.4254 27.3C20.9867 27.3 23.1004 26.3319 23.1004 25.2147C23.1004 22.2295 14.7004 22.8827 14.7004 16.8C14.7004 12.097 18.4006 10.7047 19.9504 10.5V6.3H21.0004ZM22.0504 5.25H21.0004H19.9504H18.9004V6.3V9.6537C16.7038 10.2879 13.6504 12.307 13.6504 16.8C13.6504 21.0682 17.0797 22.5414 19.5839 23.6166C20.7967 24.1374 22.0504 24.676 22.0504 25.2147C21.9412 25.5339 20.6518 26.25 19.4254 26.25C17.2823 26.25 16.1546 26.0914 15.1162 25.6431L13.6504 25.011V26.607V30.7377V31.4538L14.3171 31.7152C15.5257 32.1888 17.6141 32.4019 18.9004 32.4922V35.7V36.75H19.9504H21.0004H22.0504V35.7V32.3295C24.857 31.5073 28.3504 28.9905 28.3504 25.3008C28.3504 20.7743 24.9568 19.4607 22.4788 18.502C20.7599 17.8374 19.9504 17.4531 19.9504 16.8C19.9504 15.8865 21.1012 15.75 21.7879 15.75C23.4049 15.75 24.7237 16.0524 25.7065 16.6477L27.3004 17.6148V15.75V11.5385V10.921L26.7607 10.6207C25.7894 10.08 23.6558 9.7104 22.0504 9.5382V6.3V5.25ZM28.8754 9.45C28.7362 9.45 28.6026 9.50531 28.5042 9.60377C28.4057 9.70222 28.3504 9.83576 28.3504 9.975C28.3504 10.1142 28.4057 10.2478 28.5042 10.3462C28.6026 10.4447 28.7362 10.5 28.8754 10.5C29.0146 10.5 29.1482 10.4447 29.2466 10.3462C29.3451 10.2478 29.4004 10.1142 29.4004 9.975C29.4004 9.83576 29.3451 9.70222 29.2466 9.60377C29.1482 9.50531 29.0146 9.45 28.8754 9.45ZM28.8754 14.7C28.7362 14.7 28.6026 14.7553 28.5042 14.8538C28.4057 14.9522 28.3504 15.0858 28.3504 15.225C28.3504 15.3642 28.4057 15.4978 28.5042 15.5962C28.6026 15.6947 28.7362 15.75 28.8754 15.75C29.0146 15.75 29.1482 15.6947 29.2466 15.5962C29.3451 15.4978 29.4004 15.3642 29.4004 15.225C29.4004 15.0858 29.3451 14.9522 29.2466 14.8538C29.1482 14.7553 29.0146 14.7 28.8754 14.7Z" fill="#4788C7"/>
<path d="M29.9246 26.25V27.3H38.8496V31.5H25.7246V32.55H39.8996V26.25H29.9246Z" fill="#4788C7"/>
<path d="M29.9246 26.25C29.7854 26.25 29.6518 26.3053 29.5534 26.4037C29.4549 26.5022 29.3996 26.6357 29.3996 26.775C29.3996 26.9142 29.4549 27.0477 29.5534 27.1462C29.6518 27.2446 29.7854 27.2999 29.9246 27.2999C30.0638 27.2999 30.1974 27.2446 30.2958 27.1462C30.3943 27.0477 30.4496 26.9142 30.4496 26.775C30.4496 26.6357 30.3943 26.5022 30.2958 26.4037C30.1974 26.3053 30.0638 26.25 29.9246 26.25ZM25.7246 31.5C25.5854 31.5 25.4518 31.5553 25.3534 31.6537C25.2549 31.7522 25.1996 31.8857 25.1996 32.025C25.1996 32.1642 25.2549 32.2977 25.3534 32.3962C25.4518 32.4946 25.5854 32.5499 25.7246 32.5499C25.8638 32.5499 25.9974 32.4946 26.0958 32.3962C26.1943 32.2977 26.2496 32.1642 26.2496 32.025C26.2496 31.8857 26.1943 31.7522 26.0958 31.6537C25.9974 31.5553 25.8638 31.5 25.7246 31.5ZM12.0746 15.75V14.7H3.14961V10.5H15.2246V9.44995H2.09961V15.75H12.0746Z" fill="#4788C7"/>
<path d="M12.0748 14.7C11.9356 14.7 11.802 14.7553 11.7036 14.8537C11.6051 14.9522 11.5498 15.0857 11.5498 15.225C11.5498 15.3642 11.6051 15.4977 11.7036 15.5962C11.802 15.6946 11.9356 15.75 12.0748 15.75C12.214 15.75 12.3476 15.6946 12.446 15.5962C12.5445 15.4977 12.5998 15.3642 12.5998 15.225C12.5998 15.0857 12.5445 14.9522 12.446 14.8537C12.3476 14.7553 12.214 14.7 12.0748 14.7ZM15.2248 9.44995C15.0856 9.44995 14.952 9.50526 14.8536 9.60372C14.7551 9.70218 14.6998 9.83571 14.6998 9.97495C14.6998 10.1142 14.7551 10.2477 14.8536 10.3462C14.952 10.4446 15.0856 10.5 15.2248 10.5C15.364 10.5 15.4976 10.4446 15.596 10.3462C15.6945 10.2477 15.7498 10.1142 15.7498 9.97495C15.7498 9.83571 15.6945 9.70218 15.596 9.60372C15.4976 9.50526 15.364 9.44995 15.2248 9.44995Z" fill="#4788C7"/>
</svg>
