<svg width="42" height="42" viewBox="0 0 42 42" fill="none" xmlns="http://www.w3.org/2000/svg">
<path d="M23.2712 0C25.486 5.34465 15.2826 8.61959 14.3361 13.0745C13.4716 17.1635 20.3875 21.9591 20.3938 21.9591C19.3463 20.268 18.5702 18.8419 17.5164 16.2043C15.7369 11.7494 28.3887 7.72987 23.2712 0ZM29.9851 7.42067C29.9851 7.42067 21.1005 7.99489 20.6462 13.9327C20.4443 16.5766 22.9935 17.9648 23.0693 19.8894C23.1261 21.4606 21.5044 22.7668 21.5044 22.7668C21.5044 22.7668 24.3944 22.2368 25.2904 19.8389C26.2811 17.1761 23.3785 15.3588 23.675 13.226C23.959 11.1878 29.9851 7.42067 29.9851 7.42067ZM32.1558 21.101C31.2219 21.0568 30.1681 21.4102 29.2279 22.1106C31.0705 21.6941 32.6606 22.8741 32.6606 24.2308C32.6606 27.2722 28.4202 30.137 28.4202 30.137C28.4202 30.137 34.9827 29.3861 34.9827 24.3822C34.9827 22.3188 33.7081 21.1767 32.1558 21.101ZM14.6895 21.1514C12.3926 21.2335 7.82407 21.6184 7.82407 23.4231C7.82407 25.9345 18.5134 26.1301 26.1486 24.5841C26.1486 24.5841 28.1804 23.1076 28.7231 22.5649C23.7192 23.625 12.3169 23.7891 12.3169 22.8678C12.3169 22.0222 16.002 21.1514 16.002 21.1514C16.002 21.1514 15.453 21.1262 14.6895 21.1514ZM14.0332 25.7957C12.7775 25.7957 10.9034 26.7927 10.9034 27.7644C10.9034 29.7206 20.3307 31.2224 27.3096 28.3702L24.8866 26.8558C20.154 28.4333 11.4524 27.9096 14.0332 25.7957ZM15.1943 30.1875C13.4779 30.1875 12.3673 31.2918 12.3673 32.1058C12.3673 34.6109 22.5897 34.857 26.6534 32.3077L24.0789 30.5913C21.0437 31.9228 13.4401 32.1184 15.1943 30.1875ZM9.43945 32.4591C6.64408 32.4023 4.8457 33.6959 4.8457 34.7812C4.8457 40.555 33.5188 40.2773 33.5188 34.3774C33.5188 33.3993 32.4019 32.9324 32.0044 32.7115C34.3454 38.3528 8.58128 37.9111 8.58128 34.5793C8.58128 33.8221 10.4617 33.0649 12.2159 33.4183L10.7015 32.5601C10.2661 32.4907 9.83699 32.4654 9.43945 32.4591ZM36.4971 36.3462C32.1432 40.6433 21.0942 42.183 9.99474 39.5264C21.0942 44.259 36.4467 41.6277 36.4971 36.3462Z" fill="#4788C7"/>
</svg>
